<?xml version="1.0" encoding="UTF-8"?>
<svg id="Layer_2" data-name="Layer 2" xmlns="http://www.w3.org/2000/svg" xmlns:xlink="http://www.w3.org/1999/xlink" viewBox="0 0 2000 2000">
  <defs>
    <style>
      .cls-1 {
        fill: none;
      }

      .cls-1, .cls-2, .cls-3 {
        stroke-width: 0px;
      }

      .cls-2 {
        fill: url(#Green-2);
      }

      .cls-3 {
        fill: url(#Green);
      }
    </style>
    <linearGradient id="Green" x1="353.86" y1="1028.42" x2="1175.2" y2="1028.42" gradientUnits="userSpaceOnUse">
      <stop offset=".33" stop-color="#366a3e"/>
      <stop offset="1" stop-color="#6eb47b"/>
    </linearGradient>
    <linearGradient id="Green-2" data-name="Green" x1="1214.73" y1="1030.49" x2="1646.14" y2="1030.49" xlink:href="#Green"/>
  </defs>
  <g id="Layer_1-2" data-name="Layer 1">
    <rect class="cls-1" width="2000" height="2000"/>
    <path class="cls-3" d="m1111.98,1572.96c-84.28,84.28-220.77,84.28-305.06,0-33.21-33.21-53.34-74.6-60.3-117.73-.08-10.52-1.06-20.96-2.8-31.4-6.89-42.52-26.63-83.45-59.17-116.36-.38-.53-.68-.91-1.14-1.29-32.84-32.84-73.46-52.81-115.99-60.07-11.42-1.97-22.93-3.03-34.58-3.1-42.52-7.19-83.15-27.24-115.99-60-42.6-42.6-63.71-98.66-63.1-154.57-.6-55.91,20.43-111.98,63.1-154.65,31.55-31.47,70.44-51.22,111.07-59.17,14.45.08,28.9-1.13,43.13-3.93,40.7-7.94,79.59-27.69,111.07-59.17l.15-.15c36.77-36.77,57.43-83.68,62.12-131.72.08-1.29.15-2.57.23-3.93,4.62-48.12,25.35-94.95,62.19-131.87,84.21-84.21,220.85-84.28,305.06,0,84.28,84.28,84.21,220.85,0,305.06-32.76,32.76-73.39,52.81-115.99,60-11.58.08-23.15,1.14-34.5,3.1-42.6,7.26-83.23,27.24-115.99,60.07-.45.38-.83.76-1.21,1.29-31.32,31.7-50.84,70.89-58.33,111.75,6.51,44.03,26.71,86.48,60.68,120.37q.08.08.08.15c31.55,31.47,70.44,51.22,111.07,59.17,14.22,2.8,28.68,4.09,43.13,3.93,40.7,7.94,79.59,27.69,111.07,59.17,84.28,84.28,84.28,220.77,0,305.06Z"/>
    <circle class="cls-2" cx="1430.43" cy="1030.49" r="215.71"/>
  </g>
</svg>