<?xml version="1.0" encoding="utf-8"?>
<!-- Generator: Adobe Illustrator 28.0.0, SVG Export Plug-In . SVG Version: 6.00 Build 0)  -->
<svg version="1.1" id="Layer_1" xmlns="http://www.w3.org/2000/svg" xmlns:xlink="http://www.w3.org/1999/xlink" x="0px" y="0px"
	 viewBox="0 0 2000 1000" style="enable-background:new 0 0 2000 1000;" xml:space="preserve">
<style type="text/css">
	.st0{fill:url(#SVGID_1_);}
	.st1{fill:url(#SVGID_00000029017589859675299490000008849936596627965095_);}
	.st2{fill:#231F20;}
	.st3{font-family:'NasalizationRg-Regular';}
	.st4{font-size:305.5826px;}
</style>
<linearGradient id="SVGID_1_" gradientUnits="userSpaceOnUse" x1="53.8953" y1="499.8313" x2="293.3125" y2="499.8313" gradientTransform="matrix(1 0 0 -1 0 1000)">
	<stop  offset="0.3277" style="stop-color:#366A3E"/>
	<stop  offset="1" style="stop-color:#6EB47B"/>
</linearGradient>
<path class="st0" d="M274.8,658.7c-24.6,24.6-64.3,24.6-88.9,0c-9.7-9.7-15.5-21.7-17.6-34.3c0-3.1-0.3-6.1-0.8-9.1
	c-2-12.4-7.8-24.3-17.2-33.9c-0.1-0.2-0.2-0.3-0.3-0.4c-9.6-9.6-21.4-15.4-33.8-17.5c-3.3-0.6-6.7-0.9-10.1-0.9
	c-12.4-2.1-24.2-7.9-33.8-17.5c-12.4-12.4-18.6-28.7-18.4-45c-0.2-16.3,6-32.6,18.4-45.1c9.2-9.2,20.5-14.9,32.4-17.2
	c4.2,0,8.4-0.3,12.6-1.1c11.9-2.3,23.2-8.1,32.4-17.2l0,0c10.7-10.7,16.7-24.4,18.1-38.4c0-0.4,0-0.7,0.1-1.1
	c1.3-14,7.4-27.7,18.1-38.4c24.5-24.5,64.4-24.6,88.9,0c24.6,24.6,24.5,64.4,0,88.9c-9.5,9.5-21.4,15.4-33.8,17.5
	c-3.4,0-6.7,0.3-10.1,0.9c-12.4,2.1-24.2,7.9-33.8,17.5c-0.1,0.1-0.2,0.2-0.4,0.4c-9.1,9.2-14.8,20.7-17,32.6
	c1.9,12.8,7.8,25.2,17.7,35.1l0,0c9.2,9.2,20.5,14.9,32.4,17.2c4.1,0.8,8.4,1.2,12.6,1.1c11.9,2.3,23.2,8.1,32.4,17.2
	C299.4,594.3,299.4,634.1,274.8,658.7z"/>
<linearGradient id="SVGID_00000005262742867273049050000001259241689622869415_" gradientUnits="userSpaceOnUse" x1="304.7" y1="499.4" x2="430.5" y2="499.4" gradientTransform="matrix(1 0 0 -1 0 1000)">
	<stop  offset="0.3277" style="stop-color:#366A3E"/>
	<stop  offset="1" style="stop-color:#6EB47B"/>
</linearGradient>
<circle style="fill:url(#SVGID_00000005262742867273049050000001259241689622869415_);" cx="367.6" cy="500.6" r="62.9"/>
<text transform="matrix(1 0 0 1 500.9805 591.2695)" class="st2 st3 st4">CLINIC AI</text>
</svg>
